<svg xmlns="http://www.w3.org/2000/svg" viewBox="0 0 34.3 27.8"><g id="f3059074-6840-42e3-adf7-c57960bb9ee0" data-name="Layer 2"><g id="f86e30f3-19b2-400e-97db-1806dffadf53" data-name="Layer 2"><path d="M0,18.7H1.8v1a6.4,6.4,0,0,0,6.3,6.4H26.2a6.4,6.4,0,0,0,6.3-6.4v-1h1.8v1a8.1,8.1,0,0,1-8.1,8.1H8.1A8.1,8.1,0,0,1,0,19.7Z" fill="#b3b3b3"/><rect x="14.5" width="5.3" height="17.11" fill="#b3b3b3"/><path d="M17.1,15.3H10.5a.8.8,0,0,0-.5,1.4L16.6,22a.9.9,0,0,0,1,0l6.7-5.3a.8.8,0,0,0-.5-1.4Z" fill="#b3b3b3"/></g></g></svg>