<svg xmlns="http://www.w3.org/2000/svg" viewBox="0 0 167.06 164.07">
  <defs>
    <style>
      .cls-1 {
        fill: #188dff;
      }
    </style>
  </defs>
  <g id="Layer_2" data-name="Layer 2">
    <g id="Layer_1-2" data-name="Layer 1">
      <path class="cls-1" d="M167.06,83.53a83.57,83.57,0,0,1-61.31,80.54V137.76A22.18,22.18,0,0,0,98.08,121c26.3-3.47,39.61-16.57,39.33-37.43-.13-9.68-3-19.18-9.49-26.78a28.69,28.69,0,0,0,1.64-9.53c0-5.21-1.51-11.57-3.88-12.86s-17.28,4.24-22.54,8.21A85.15,85.15,0,0,0,83.2,40.36a85.63,85.63,0,0,0-19.84,2.18c-5.18-4-20.27-9.57-22.64-8.28s-3.89,7.65-3.89,12.87a28.41,28.41,0,0,0,1.68,9.6h0C32,64.35,29.12,73.84,29,83.53c-.28,21,13.22,34.15,39.9,37.51a22.12,22.12,0,0,0-6.6,10.14C57.79,133,46.37,136,38.89,125c-1.86-2.78-10.58-11.45-16.23-8.39-.82.53-1.65,1.72,1,3.36,15,10.58,7.05,22.76,27.68,24.09a97.56,97.56,0,0,0,10-.65v20.63A83.54,83.54,0,1,1,167.06,83.53Z"/>
    </g>
  </g>
</svg>
