<svg xmlns="http://www.w3.org/2000/svg" viewBox="0 0 37.4 31.8"><g id="e2326c92-f119-4d62-9baf-f6e6b45d161b" data-name="Layer 2"><g id="a950ded7-4924-4b48-9f78-2ec1395fa7d4" data-name="Layer 2"><path d="M5.2,12A14.1,14.1,0,0,1,18.6,1.9,13.9,13.9,0,0,1,32,12h2A15.8,15.8,0,0,0,18.6,0,16,16,0,0,0,3.2,12Z" fill="#b3b3b3"/><path d="M32,19.7A13.8,13.8,0,0,1,18.6,29.8,13.9,13.9,0,0,1,5.2,19.7h-2A16.1,16.1,0,0,0,18.6,31.8,15.9,15.9,0,0,0,34,19.7Z" fill="#b3b3b3"/><polygon points="8.7 19.8 0 19.8 4.4 15.4 8.7 19.8" fill="#b3b3b3"/><polygon points="28.7 12 37.4 12 33 16.4 28.7 12" fill="#b3b3b3"/><path d="M23.2,18.5c0,1.6-1.4,2.9-3.4,3.3v.9H17.5v-.9a4.1,4.1,0,0,1-3.2-2.5h2.4a1.6,1.6,0,0,0,.8.6,2.7,2.7,0,0,0,1.2.3,2,2,0,0,0,1.1-.3A1.7,1.7,0,0,0,21,18.5a2.1,2.1,0,0,0-2.3-1.8,5.6,5.6,0,0,1-3-.8,3.3,3.3,0,0,1-1.6-2.6c0-1.6,1.5-3,3.4-3.3V9.1h2.3V10a4.1,4.1,0,0,1,3.3,2.4H20.6a1.7,1.7,0,0,0-.8-.6,2,2,0,0,0-1.1-.2,2.5,2.5,0,0,0-1.2.2,1.7,1.7,0,0,0-1.1,1.5c0,.9,1,1.7,2.3,1.7a5.1,5.1,0,0,1,3,.9A3.1,3.1,0,0,1,23.2,18.5Z" fill="#b3b3b3"/></g></g></svg>