<svg xmlns="http://www.w3.org/2000/svg" viewBox="0 0 755 109.6"><g id="bdda5da5-e299-46fd-88fb-f5e7f6bfac60" data-name="Layer 2"><g id="fe4977c3-75ca-442b-975d-4e0c6a40df96" data-name="Main Screen"><path d="M176.4,33.8h13.2l23.5,39.1,23.5-39.1h13.2L213.1,90.6Z" fill="#fff"/><path d="M278.6,89.6V33.8H290V89.6Z" fill="#fff"/><path d="M373.5,78.4H338.7l-7.1,11.2H318.9l37.2-56.8,37.2,56.8H380.6Zm-28.7-9.7h22.5L356.1,51Z" fill="#fff"/><path d="M422.3,89.6V33.8h37c12.5,0,20.7,3.1,20.7,15.7a10.4,10.4,0,0,1-6.3,9.8c6.2.8,11.3,6.3,11.3,13.6,0,11.9-6.7,16.7-23.1,16.7Zm11.4-46.2V56.1h25.6c5.1,0,8.7-1.7,8.7-6.4s-3.7-6.3-8.7-6.3Zm0,22.4V80h28.2c6.8,0,11-1.6,11-7.1s-3.8-7.1-11-7.1Z" fill="#fff"/><path d="M569,33.8h11.4V62.5c0,20-14.1,28.4-31.4,28.4s-31.2-8.4-31.2-28.4V33.8h11.3V62.5c0,14.2,9.9,18.7,19.9,18.7s20-4.5,20-18.7Z" fill="#fff"/><path d="M617.5,89.6V33.8h11.4V80h41.7v9.6Z" fill="#fff"/><path d="M701.9,89.6V33.8h11.4V80H755v9.6Z" fill="#fff"/><path d="M103.4,32.3,83,77.5h0L76.7,91.6,70.4,77.5h0L50,32.3A54,54,0,0,1,0,0,54.7,54.7,0,0,0,3.8,20.1C8.5,32.2,20.3,43.9,33.7,49.2L45.1,70.8h0l17.6,38.8h28l17.6-38.8h0l11.4-21.6c13.4-5.3,25.2-17,29.9-29.1A54.7,54.7,0,0,0,153.4,0,54,54,0,0,1,103.4,32.3Z"/></g></g></svg>