<svg xmlns="http://www.w3.org/2000/svg" viewBox="0 0 578.6 270.9"><g id="a1a36f6e-63b9-4050-9528-7e71fc6c63a1" data-name="Layer 2"><g id="bbf0ac30-b146-4ef8-8b44-00c6cdba0aa5" data-name="Layer 2"><path d="M245.9,269.6V213.8h37c12.5,0,20.7,3.1,20.7,15.7a10.4,10.4,0,0,1-6.3,9.8c6.2.8,11.3,6.3,11.3,13.6,0,11.9-6.7,16.7-23.1,16.7Zm11.4-46.2v12.7h25.6c5.1,0,8.7-1.7,8.7-6.4s-3.7-6.3-8.7-6.3Zm0,22.4V260h28.2c6.8,0,11-1.6,11-7.1s-3.8-7.1-11-7.1Z" fill="#fff"/><path d="M392.6,213.8H404v28.7c0,20-14.1,28.4-31.4,28.4s-31.2-8.4-31.2-28.4V213.8h11.3v28.7c0,14.2,9.9,18.7,19.9,18.7s20-4.5,20-18.7Z" fill="#fff"/><polygon points="441.1 269.6 441.1 213.8 452.5 213.8 452.5 260 494.2 260 494.2 269.6 441.1 269.6" fill="#fff"/><polygon points="525.5 269.6 525.5 213.8 536.9 213.8 536.9 260 578.6 260 578.6 269.6 525.5 269.6" fill="#fff"/><polygon points="0 213.8 13.2 213.8 36.7 252.9 60.2 213.8 73.4 213.8 36.7 270.6 0 213.8" fill="#fff"/><rect x="102.2" y="213.8" width="11.4" height="55.8" fill="#fff"/><path d="M197.1,258.4H162.3l-7.1,11.2H142.5l37.2-56.8,37.2,56.8H204.2Zm-28.7-9.7h22.5L179.7,231Z" fill="#fff"/><path d="M321.2,38.6,296.8,92.8l-7.5,16.8-7.5-16.8L257.4,38.6A64.4,64.4,0,0,1,197.6,0a63.9,63.9,0,0,0,4.5,24.1c5.7,14.4,19.8,28.4,35.8,34.8l13.6,25.8,21.1,46.4H306l21.1-46.4,13.6-25.8c16-6.4,30.1-20.4,35.8-34.8A63.9,63.9,0,0,0,381,0a64.4,64.4,0,0,1-59.8,38.6" fill="#e2623b"/></g></g></svg>