<svg xmlns="http://www.w3.org/2000/svg" viewBox="0 0 1121.5 803.5"><g id="a4961d43-6b26-45fd-9fda-c882a02a95b7" data-name="Layer 2"><g id="bd9de767-ba9e-4d09-9169-08788cc9e4c0" data-name="Layer 1"><path d="M963,190.8c-42.6,21.9-82.9,55.8-108.9,80.1H474.8c21.1-16.9,75-57.6,132.6-80.1Z" fill="#1a1a1a"/><path d="M1116.2,190.8c-47.4,24.3-91.9,63.6-117.1,87.9h-394l9.3-7.7c21.1-16.9,75-57.6,132.6-80.1Z" fill="#f15a24"/><path d="M1102.6,190.8c-42.6,21.9-82.9,55.8-108.9,80.1H614.4c21.1-16.9,75-57.6,132.6-80.1Z" fill="#1a1a1a"/><text transform="translate(765.1 244) scale(1.39 1)" font-size="32" fill="#f15a24" font-family="DegularDisplay-Bold, Degular Display" font-weight="700"><tspan letter-spacing="-0.01em">T</tspan><tspan x="15.6" y="0" letter-spacing="0em">r</tspan><tspan x="25.6" y="0">ade</tspan><tspan x="72.4" y="0" xml:space="preserve" fill="#fff" font-family="DegularDisplay-Regular, Degular Display" font-weight="400" letter-spacing="0em"> Options</tspan></text><path d="M862.6,190.8c-16.4-8.3-46.1-12.7-79.8-.3-29.7,11-62.5,35-92.1,80.4l-4.8,7.7H605.1s3.4-2.9,9.4-7.7c21.1-16.9,75.2-57.7,133-80.4,44.9-17.5,92.1-23.9,127.6.3Z" fill="#f15a24"/><path d="M518.6,15.8c-42.7,21.9-83,55.9-109,80.2H30.4c21-16.9,75-57.6,132.5-80.2Z" fill="#1a1a1a"/><path d="M671.7,15.8c-47.4,24.4-91.9,63.6-117.1,87.9H160.7s3.3-2.9,9.3-7.7c21-16.9,75-57.6,132.5-80.2Z" fill="#f15a24"/><path d="M658.2,15.8c-42.7,21.9-83,55.9-109,80.2H170c21-16.9,75-57.6,132.5-80.2Z" fill="#1a1a1a"/><text transform="translate(320.7 69.1) scale(1.39 1)" font-size="32" fill="#f15a24" font-family="DegularDisplay-Bold, Degular Display" font-weight="700"><tspan letter-spacing="-0.01em">T</tspan><tspan x="15.6" y="0" letter-spacing="0em">r</tspan><tspan x="25.6" y="0">ade</tspan><tspan x="72.4" y="0" xml:space="preserve" fill="#fff" font-family="DegularDisplay-Regular, Degular Display" font-weight="400" letter-spacing="0em"> S</tspan><tspan x="93.9" y="0" fill="#fff" font-family="DegularDisplay-Regular, Degular Display" font-weight="400" letter-spacing="-0.01em">t</tspan><tspan x="103.8" y="0" fill="#fff" font-family="DegularDisplay-Regular, Degular Display" font-weight="400">oc</tspan><tspan x="135.5" y="0" fill="#fff" font-family="DegularDisplay-Regular, Degular Display" font-weight="400" letter-spacing="-0.01em">k</tspan><tspan x="149.1" y="0" fill="#fff" font-family="DegularDisplay-Regular, Degular Display" font-weight="400">s</tspan></text><path d="M418.1,15.8c-16.3-8.3-46.1-12.6-79.7-.2-29.8,11-62.6,35-92.1,80.4-1.7,2.5-3.3,5.1-4.9,7.7H160.7s3.3-2.9,9.3-7.7c21.1-17,75.3-57.8,133-80.4,44.9-17.6,92.1-23.9,127.7.2Z" fill="#f15a24"/><path d="M488.2,365.7c-42.6,21.9-83,55.9-109,80.2H0c21.1-16.9,75-57.6,132.6-80.2Z" fill="#1a1a1a"/><path d="M641.4,365.7c-47.5,24.3-92,63.6-117.2,87.9H130.3s3.3-2.9,9.3-7.7c21.1-16.9,75-57.6,132.6-80.2Z" fill="#f15a24"/><path d="M627.8,365.7c-42.6,21.9-83,55.9-109,80.2H139.6c21.1-16.9,75-57.6,132.6-80.2Z" fill="#1a1a1a"/><text transform="translate(290.3 418.9) scale(1.39 1)" font-size="32" fill="#f15a24" font-family="DegularDisplay-Bold, Degular Display" font-weight="700"><tspan letter-spacing="-0.01em">T</tspan><tspan x="15.6" y="0" letter-spacing="0em">r</tspan><tspan x="25.6" y="0">ade</tspan><tspan x="72.4" y="0" xml:space="preserve" fill="#fff" font-family="DegularDisplay-Regular, Degular Display" font-weight="400" letter-spacing="0em"> C</tspan><tspan x="96.7" y="0" fill="#fff" font-family="DegularDisplay-Regular, Degular Display" font-weight="400" letter-spacing="0.02em">r</tspan><tspan x="106.3" y="0" fill="#fff" font-family="DegularDisplay-Regular, Degular Display" font-weight="400" letter-spacing="0em">yp</tspan><tspan x="136.9" y="0" fill="#fff" font-family="DegularDisplay-Regular, Degular Display" font-weight="400" letter-spacing="0em">t</tspan><tspan x="146.8" y="0" fill="#fff" font-family="DegularDisplay-Regular, Degular Display" font-weight="400" letter-spacing="0em">os</tspan></text><path d="M387.7,365.7c-16.3-8.3-46-12.6-79.7-.2-29.7,11-62.6,34.9-92.1,80.4-1.6,2.5-3.2,5-4.8,7.7H130.3s3.3-2.9,9.3-7.7c21.2-17,75.3-57.8,133.1-80.4,44.9-17.6,92.1-23.9,127.6.2Z" fill="#f15a24"/><path d="M968.3,540.6c-42.6,21.9-82.9,55.9-108.9,80.2H480.1c21.1-16.9,75-57.6,132.6-80.2Z" fill="#1a1a1a"/><path d="M1121.5,540.6c-47.4,24.4-91.9,63.6-117.1,87.9h-394s3.4-2.9,9.4-7.7c21-16.9,74.9-57.6,132.5-80.2Z" fill="#f15a24"/><path d="M1108,540.6c-42.7,21.9-83,55.9-109,80.2H619.8c21-16.9,74.9-57.6,132.5-80.2Z" fill="#1a1a1a"/><text transform="translate(770.5 593.9) scale(1.39 1)" font-size="32" fill="#f15a24" font-family="DegularDisplay-Bold, Degular Display" font-weight="700"><tspan letter-spacing="-0.01em">T</tspan><tspan x="15.6" y="0" letter-spacing="0em">r</tspan><tspan x="25.6" y="0">ade</tspan><tspan x="72.4" y="0" xml:space="preserve" fill="#fff" font-family="DegularDisplay-Regular, Degular Display" font-weight="400" letter-spacing="0em"> Gold</tspan></text><path d="M867.9,540.6c-16.4-8.3-46.1-12.6-79.7-.2-29.8,11-62.6,35-92.1,80.4-1.7,2.5-3.3,5.1-4.9,7.7H610.4s3.4-2.9,9.4-7.7c21.1-17,75.2-57.8,133-80.4,44.9-17.6,92.1-23.9,127.6.2Z" fill="#f15a24"/><path d="M488.2,715.6c-42.6,21.9-83,55.8-109,80.1H0c21.1-16.9,75-57.6,132.6-80.1Z" fill="#1a1a1a"/><path d="M641.4,715.6c-47.5,24.3-92,63.6-117.2,87.9H130.3l9.3-7.7c21.1-16.9,75-57.6,132.6-80.1Z" fill="#f15a24"/><path d="M627.8,715.6c-42.6,21.9-83,55.8-109,80.1H139.6c21.1-16.9,75-57.6,132.6-80.1Z" fill="#1a1a1a"/><text transform="translate(290.3 768.8) scale(1.39 1)" font-size="32" fill="#f15a24" font-family="DegularDisplay-Bold, Degular Display" font-weight="700"><tspan letter-spacing="-0.01em">T</tspan><tspan x="15.6" y="0" letter-spacing="0em">r</tspan><tspan x="25.6" y="0">ade</tspan><tspan x="72.4" y="0" fill="#fff" font-family="DegularDisplay-Regular, Degular Display" font-weight="400" letter-spacing="0em"> </tspan><tspan x="77.2" y="0" fill="#fff" font-family="DegularDisplay-Regular, Degular Display" font-weight="400" letter-spacing="-0.02em">E</tspan><tspan x="92.1" y="0" fill="#fff" font-family="DegularDisplay-Regular, Degular Display" font-weight="400">T</tspan><tspan x="107.6" y="0" fill="#fff" font-family="DegularDisplay-Regular, Degular Display" font-weight="400" letter-spacing="-0.02em">F</tspan><tspan x="122" y="0" fill="#fff" font-family="DegularDisplay-Regular, Degular Display" font-weight="400">’S</tspan></text><path d="M387.7,715.6c-16.3-8.3-46-12.7-79.7-.3-29.7,11-62.6,35-92.1,80.4l-4.8,7.7H130.3s3.3-2.9,9.3-7.7c21.2-16.9,75.3-57.7,133.1-80.4,44.9-17.5,92.1-23.9,127.6.3Z" fill="#f15a24"/><path d="M598.9,595.7H580.8a3.4,3.4,0,0,1-2.7-1.3,2.9,2.9,0,0,1-.4-2.4l3.1-8.7a3.1,3.1,0,0,1,3.1-2h11.9a3.2,3.2,0,0,1,3.1,2L602,592a2.6,2.6,0,0,1-.3,2.4A3.4,3.4,0,0,1,598.9,595.7Zm-15-12.2c-.6,0-1,.3-1,.6l-3.1,8.6a.8.8,0,0,0,.1.4,1,1,0,0,0,.9.4h18.1a1.3,1.3,0,0,0,1-.4c.1-.2.1-.3,0-.4l-3.1-8.7a1.2,1.2,0,0,0-1-.5Z" fill="#f15a24"/><path d="M622.7,595.7H604.6a3.4,3.4,0,0,1-2.7-1.3,2.9,2.9,0,0,1-.4-2.4l3.1-8.7a3.1,3.1,0,0,1,3.1-2h11.9a3.3,3.3,0,0,1,3.1,2l3.1,8.7a2.6,2.6,0,0,1-.3,2.4A3.6,3.6,0,0,1,622.7,595.7Zm-15-12.2a1.3,1.3,0,0,0-1.1.5l-3,8.7a.8.8,0,0,0,.1.4,1,1,0,0,0,.9.4h18.1a1.3,1.3,0,0,0,1-.4c.1-.2.1-.3,0-.4l-3.1-8.7a1.2,1.2,0,0,0-1-.5Z" fill="#f15a24"/><path d="M610.8,583.5H592.7a3.4,3.4,0,0,1-2.7-1.3,2.9,2.9,0,0,1-.4-2.4l3.1-8.7a3.1,3.1,0,0,1,3.1-2h11.9a3.3,3.3,0,0,1,3.1,2l3.1,8.7a2.6,2.6,0,0,1-.3,2.4A3.4,3.4,0,0,1,610.8,583.5Zm-15-12.2c-.6,0-1,.3-1,.6l-3.1,8.6a.8.8,0,0,0,.1.4,1,1,0,0,0,.9.4h18.1a1.3,1.3,0,0,0,1-.4c.1-.2.1-.3,0-.4l-3.1-8.6a1.1,1.1,0,0,0-1-.6Z" fill="#f15a24"/><circle cx="130.3" cy="405.8" r="16" fill="none" stroke="#f15a24" stroke-miterlimit="10" stroke-width="2.2"/><path d="M138.9,406.6a7.4,7.4,0,0,0-3.3-8.3h0l1.1-2.9-1.6-.6-1,2.8h0l-1.2-.4,1-2.8-1.6-.7-1.2,3.3h0a8,8,0,0,0-7.5,5.6c-1.4,3.6-.6,7.1,1.9,9.3l-1.2,3.2,1.6.6,1.1-2.8h0l1.1.5-1,2.8,1.6.6,1.1-3h0a7.4,7.4,0,0,0,8-4.2l-2.1-1.2c-1.2,2.2-2.9,3.4-5.1,3.3l-1.6-.4h-.1l-1.1-.6a4.1,4.1,0,0,1-1.4-1.2c-1.2-1.6-1.3-3.7-.5-6a6.1,6.1,0,0,1,4.3-4.1h1.9a5.3,5.3,0,0,1,1.2.3,3.8,3.8,0,0,1,1.5.9c1.7,1.2,2.2,3.3,1.7,5.6Z" fill="#f15a24"/><rect x="587.4" y="217.8" width="7.9" height="7.91" rx="1.6" fill="#f15a24"/><rect x="598.5" y="219.2" width="24.4" height="5.03" rx="1.2" fill="#f15a24"/><rect x="598.5" y="230" width="18.8" height="5.03" rx="1.1" fill="#f15a24"/><rect x="598.5" y="240.7" width="13.9" height="5.03" rx="0.9" fill="#f15a24"/><rect x="587.4" y="228.5" width="7.9" height="7.91" rx="1.6" fill="#f15a24"/><rect x="587.4" y="239.3" width="7.9" height="7.91" rx="1.6" fill="#f15a24"/><circle cx="136.8" cy="73.3" r="3.1" fill="#f15a24"/><circle cx="156.4" cy="47.4" r="3.1" fill="#f15a24"/><circle cx="165.4" cy="60.1" r="3.1" fill="#f15a24"/><circle cx="184.5" cy="35.6" r="3.1" fill="#f15a24"/><line x1="136.8" y1="73.3" x2="156.4" y2="47.4" fill="none" stroke="#f15a24" stroke-miterlimit="10" stroke-width="1.66"/><line x1="156.4" y1="47.4" x2="165.4" y2="60.1" fill="none" stroke="#f15a24" stroke-miterlimit="10" stroke-width="1.66"/><line x1="184.5" y1="35.6" x2="165.4" y2="60.1" fill="none" stroke="#f15a24" stroke-miterlimit="10" stroke-width="1.66"/><rect x="108.6" y="751.6" width="5.9" height="17.19" rx="2.9" fill="#f15a24"/><rect x="123.7" y="740.3" width="5.9" height="28.56" rx="2.9" fill="#f15a24"/><rect x="138.7" y="751.6" width="5.9" height="17.19" rx="2.9" fill="#f15a24"/></g></g></svg>