<svg xmlns="http://www.w3.org/2000/svg" viewBox="0 0 1064.6 764"><g id="ab120f24-886a-4ee9-b76f-53cb6632b4c0" data-name="Layer 2"><g id="f2ab5e76-4958-4495-bc33-9a0ae44a299c" data-name="Layer 1"><path d="M896.4,15.9c-42.7,21.9-83,55.8-109,80.2H408.1l-9.3,7.7h394C818,79.5,862.5,40.2,909.9,15.9Z" fill="#f15a24"/><path d="M426.3,15.9C368.8,38.4,314.8,79.1,293.8,96.1H789.3c26-24.4,66.3-58.3,108.9-80.2Z" fill="#1a1a1a"/><text transform="translate(558.9 69.1) scale(1.39 1)" font-size="32" fill="#f15a24" font-family="DegularDisplay-Bold, Degular Display" font-weight="700"><tspan letter-spacing="-0.01em">T</tspan><tspan x="15.6" y="0" letter-spacing="0em">r</tspan><tspan x="25.6" y="0">ade</tspan><tspan x="72.4" y="0" xml:space="preserve" fill="#fff" font-family="DegularDisplay-Regular, Degular Display" font-weight="400" letter-spacing="0em"> S</tspan><tspan x="93.9" y="0" fill="#fff" font-family="DegularDisplay-Regular, Degular Display" font-weight="400" letter-spacing="-0.01em">t</tspan><tspan x="103.8" y="0" fill="#fff" font-family="DegularDisplay-Regular, Degular Display" font-weight="400">oc</tspan><tspan x="135.5" y="0" fill="#fff" font-family="DegularDisplay-Regular, Degular Display" font-weight="400" letter-spacing="-0.01em">k</tspan><tspan x="149.1" y="0" fill="#fff" font-family="DegularDisplay-Regular, Degular Display" font-weight="400">s</tspan></text><path d="M656.2,15.8c-16.3-8.3-46.1-12.6-79.7-.2-29.7,11-62.6,35-92.1,80.4l-4.9,7.7H398.8s3.3-2.9,9.3-7.7c21.2-17,75.3-57.8,133.1-80.4,44.9-17.6,92.1-23.9,127.6.2Z" fill="#f15a24"/><circle cx="375" cy="73.4" r="3.1" fill="#f15a24"/><circle cx="394.6" cy="47.4" r="3.1" fill="#f15a24"/><circle cx="403.6" cy="60.2" r="3.1" fill="#f15a24"/><circle cx="422.7" cy="35.7" r="3.1" fill="#f15a24"/><line x1="375" y1="73.4" x2="394.6" y2="47.4" fill="none" stroke="#f15a24" stroke-miterlimit="10" stroke-width="1.66"/><line x1="394.6" y1="47.4" x2="403.6" y2="60.2" fill="none" stroke="#f15a24" stroke-miterlimit="10" stroke-width="1.66"/><line x1="422.7" y1="35.7" x2="403.6" y2="60.2" fill="none" stroke="#f15a24" stroke-miterlimit="10" stroke-width="1.66"/><path d="M602.6,676.1c-42.7,21.9-83,55.9-109,80.2H114.4c-6,4.8-9.3,7.7-9.3,7.7H499c25.2-24.3,69.7-63.6,117.1-87.9Z" fill="#f15a24"/><path d="M132.6,676.1C75,698.7,21.1,739.4,0,756.3H495.5c26-24.3,66.3-58.3,109-80.2Z" fill="#1a1a1a"/><text transform="translate(265.1 729.3) scale(1.39 1)" font-size="32" fill="#f15a24" font-family="DegularDisplay-Bold, Degular Display" font-weight="700">I<tspan x="6.6" y="0" letter-spacing="0em">n</tspan><tspan x="22.1" y="0" letter-spacing="-0.01em">v</tspan><tspan x="36.9" y="0" letter-spacing="0em">est</tspan><tspan x="76.8" y="0" fill="#fff" font-family="DegularDisplay-Regular, Degular Display" font-weight="400"> </tspan><tspan x="81.6" y="0" fill="#fff" font-family="DegularDisplay-Regular, Degular Display" font-weight="400" letter-spacing="-0.02em">E</tspan><tspan x="96.5" y="0" fill="#fff" font-family="DegularDisplay-Regular, Degular Display" font-weight="400">T</tspan><tspan x="112" y="0" fill="#fff" font-family="DegularDisplay-Regular, Degular Display" font-weight="400" letter-spacing="-0.02em">F</tspan><tspan x="126.4" y="0" fill="#fff" font-family="DegularDisplay-Regular, Degular Display" font-weight="400" letter-spacing="-0.04em">’</tspan><tspan x="130.3" y="0" fill="#fff" font-family="DegularDisplay-Regular, Degular Display" font-weight="400">s</tspan></text><path d="M362.5,676c-16.4-8.2-46.1-12.6-79.8-.2-29.7,11-62.5,35-92.1,80.4l-4.8,7.7H105s3.4-2.9,9.4-7.7c21.1-17,75.2-57.8,133-80.4,44.9-17.5,92.1-23.9,127.6.2C374.4,676,363,676.1,362.5,676Z" fill="#f15a24"/><rect x="90.4" y="713.3" width="5.9" height="17.19" rx="2.9" fill="#f15a24"/><rect x="105.4" y="701.9" width="5.9" height="28.56" rx="2.9" fill="#f15a24"/><rect x="120.5" y="713.3" width="5.9" height="17.19" rx="2.9" fill="#f15a24"/><path d="M1051.1,180.9c-42.7,21.9-83,55.9-109,80.2H562.8l-9.3,7.7h394c25.2-24.3,69.7-63.5,117.1-87.9Z" fill="#f15a24"/><path d="M581,180.9c-57.5,22.6-111.5,63.3-132.5,80.2H944c26-24.3,66.3-58.3,108.9-80.2Z" fill="#1a1a1a"/><text transform="translate(713.6 234.2) scale(1.39 1)" font-size="32" fill="#f15a24" font-family="DegularDisplay-Bold, Degular Display" font-weight="700"><tspan letter-spacing="-0.01em">T</tspan><tspan x="15.6" y="0" letter-spacing="0em">r</tspan><tspan x="25.6" y="0">ade</tspan><tspan x="72.4" y="0" xml:space="preserve" fill="#fff" font-family="DegularDisplay-Regular, Degular Display" font-weight="400" letter-spacing="0em"> C</tspan><tspan x="96.7" y="0" fill="#fff" font-family="DegularDisplay-Regular, Degular Display" font-weight="400" letter-spacing="0.02em">r</tspan><tspan x="106.3" y="0" fill="#fff" font-family="DegularDisplay-Regular, Degular Display" font-weight="400" letter-spacing="0em">yp</tspan><tspan x="136.9" y="0" fill="#fff" font-family="DegularDisplay-Regular, Degular Display" font-weight="400" letter-spacing="0em">t</tspan><tspan x="146.8" y="0" fill="#fff" font-family="DegularDisplay-Regular, Degular Display" font-weight="400" letter-spacing="0em">os</tspan></text><path d="M810.9,180.9c-16.3-8.3-46-12.7-79.7-.2-29.7,11-62.6,34.9-92.1,80.3l-4.9,7.7H553.5s3.3-2.9,9.3-7.8c21.2-16.9,75.3-57.7,133.1-80.3,44.9-17.6,92.1-24,127.6.2Z" fill="#f15a24"/><circle cx="565" cy="217.5" r="16" fill="none" stroke="#f15a24" stroke-miterlimit="10" stroke-width="2.2"/><path d="M572.9,218.9a7.5,7.5,0,0,0-3.3-8.3h0l1.1-2.9-1.6-.6-1.1,2.8h0l-1.2-.4,1.1-2.9-1.6-.6-1.3,3.3h0a8,8,0,0,0-7.5,5.6c-1.3,3.6-.6,7,2,9.2l-1.3,3.3,1.6.6,1.1-2.9h0l1.2.6-1.1,2.8,1.6.6,1.1-3h0a7.6,7.6,0,0,0,8.1-4.2l-2.1-1.2c-1.3,2.1-3,3.4-5.1,3.2a5.1,5.1,0,0,1-1.7-.3h0l-1.2-.6a8.1,8.1,0,0,1-1.4-1.2,6.9,6.9,0,0,1,3.8-10.1H566l1.2.3a5.3,5.3,0,0,1,1.5.8c1.7,1.3,2.2,3.3,1.8,5.7Z" fill="#f15a24"/><path d="M743,346c-42.7,21.9-83,55.9-109,80.2H254.8c-6,4.8-9.3,7.7-9.3,7.7H639.4c25.2-24.3,69.7-63.6,117.1-87.9Z" fill="#f15a24"/><path d="M273,346c-57.6,22.5-111.5,63.2-132.6,80.2H635.9c26-24.3,66.3-58.3,109-80.2Z" fill="#1a1a1a"/><text transform="translate(405.5 399.2) scale(1.39 1)" font-size="32" fill="#f15a24" font-family="DegularDisplay-Bold, Degular Display" font-weight="700"><tspan letter-spacing="-0.01em">T</tspan><tspan x="15.6" y="0" letter-spacing="0em">r</tspan><tspan x="25.6" y="0">ade</tspan><tspan x="72.4" y="0" xml:space="preserve" fill="#fff" font-family="DegularDisplay-Regular, Degular Display" font-weight="400" letter-spacing="0em"> Options</tspan></text><path d="M502.9,345.9c-16.4-8.3-46.1-12.6-79.8-.2-29.7,11-62.5,35-92.1,80.4l-4.8,7.7H245.4s3.4-2.9,9.4-7.7c21.1-17,75.2-57.8,133-80.4,44.9-17.5,92.1-23.9,127.6.2Z" fill="#f15a24"/><rect x="240.9" y="371.4" width="7.9" height="7.91" rx="1.6" fill="#f15a24"/><rect x="251.9" y="372.8" width="24.4" height="5.03" rx="1.2" fill="#f15a24"/><rect x="251.9" y="383.6" width="18.8" height="5.03" rx="1.1" fill="#f15a24"/><rect x="251.9" y="394.3" width="13.9" height="5.03" rx="0.9" fill="#f15a24"/><rect x="240.9" y="382.1" width="7.9" height="7.91" rx="1.6" fill="#f15a24"/><rect x="240.9" y="392.9" width="7.9" height="7.91" rx="1.6" fill="#f15a24"/><path d="M896.4,511c-42.7,21.9-83,55.9-109,80.2H408.1l-9.3,7.7h394c25.2-24.4,69.7-63.6,117.1-88Z" fill="#f15a24"/><path d="M426.3,511c-57.5,22.6-111.5,63.3-132.5,80.2H789.3c26-24.3,66.3-58.3,108.9-80.2Z" fill="#1a1a1a"/><text transform="translate(558.9 564.3) scale(1.39 1)" font-size="32" fill="#f15a24" font-family="DegularDisplay-Bold, Degular Display" font-weight="700"><tspan letter-spacing="-0.01em">T</tspan><tspan x="15.6" y="0" letter-spacing="0em">r</tspan><tspan x="25.6" y="0">ade</tspan><tspan x="72.4" y="0" xml:space="preserve" fill="#fff" font-family="DegularDisplay-Regular, Degular Display" font-weight="400" letter-spacing="0em"> Gold</tspan></text><path d="M656.2,511c-16.3-8.3-46.1-12.7-79.7-.2-29.7,11-62.6,34.9-92.1,80.3l-4.9,7.7H398.8s3.3-2.9,9.3-7.8c21.2-16.9,75.3-57.7,133.1-80.3,44.9-17.6,92.1-23.9,127.6.2Z" fill="#f15a24"/><path d="M404.1,560.3H386a3.6,3.6,0,0,1-2.8-1.3,2.6,2.6,0,0,1-.3-2.4l3-8.7a3.3,3.3,0,0,1,3.1-2h12a3.1,3.1,0,0,1,3,2l3.2,8.7a2.6,2.6,0,0,1-.4,2.4A3.4,3.4,0,0,1,404.1,560.3ZM389,548.1a1.1,1.1,0,0,0-1,.6l-3,8.6c-.1.1-.1.2,0,.4a1.3,1.3,0,0,0,1,.4h18.1a1,1,0,0,0,.9-.4.8.8,0,0,0,.1-.4l-3.1-8.6a1.1,1.1,0,0,0-1-.6Z" fill="#f15a24"/><path d="M427.9,560.3H409.8A3.6,3.6,0,0,1,407,559a2.6,2.6,0,0,1-.3-2.4l3-8.7a3.2,3.2,0,0,1,3.1-2h11.9a3.1,3.1,0,0,1,3.1,2l3.2,8.7a2.9,2.9,0,0,1-.4,2.4A3.4,3.4,0,0,1,427.9,560.3Zm-15.1-12.2a1.1,1.1,0,0,0-1,.6l-3,8.6c-.1.1-.1.2,0,.4a1.3,1.3,0,0,0,1,.4h18.1a1,1,0,0,0,.9-.4.8.8,0,0,0,.1-.4l-3.1-8.6a1.1,1.1,0,0,0-1.1-.6Z" fill="#f15a24"/><path d="M416,548.1H397.9a3.6,3.6,0,0,1-2.8-1.3,2.6,2.6,0,0,1-.3-2.4l3-8.7a3.2,3.2,0,0,1,3.1-2h11.9a3.1,3.1,0,0,1,3.1,2l3.2,8.7a2.6,2.6,0,0,1-.4,2.4A3.4,3.4,0,0,1,416,548.1Zm-15.1-12.2a1.1,1.1,0,0,0-1,.6l-3,8.7c-.1,0-.1.2,0,.3a1.3,1.3,0,0,0,1,.4H416a1,1,0,0,0,.9-.4.6.6,0,0,0,.1-.4l-3.1-8.6a1.1,1.1,0,0,0-1.1-.6Z" fill="#f15a24"/></g></g></svg>