<svg xmlns="http://www.w3.org/2000/svg" viewBox="0 0 291 291"><g id="ef26eaed-8365-4e94-8ea6-cdaf3009aa66" data-name="Layer 2"><g id="b2522852-bed0-4df3-a571-0915a1d6d10b" data-name="Layer 1"><circle cx="145.5" cy="145.5" r="136.3" fill="#f15a24" stroke="#f7931e" stroke-miterlimit="10" stroke-width="18.43"/><path d="M177.4,118.6,153,172.7h0l-7.5,16.9L138,172.7h0l-24.4-54.1A64.7,64.7,0,0,1,53.8,80a63.4,63.4,0,0,0,4.5,24c5.7,14.5,19.8,28.5,35.8,34.8l13.6,25.8h0l21.1,46.5h33.4l21.1-46.5h0l13.6-25.8c16-6.3,30.1-20.3,35.8-34.8a63.5,63.5,0,0,0,4.6-24A65,65,0,0,1,177.4,118.6Z" fill="#f7931e"/></g></g></svg>